<svg width="400" height="200" xmlns="http://www.w3.org/2000/svg">
  <!-- Background -->
  <rect width="100%" height="100%" fill="#f0f0f0" rx="10" />

  <!-- Main Title: TIMETRVLR -->
  <text x="200" y="50" font-family="Arial, sans-serif" font-size="36"
    font-weight="bold" text-anchor="middle" fill="#333">TIMETRVLR</text>

  <!-- Subtitle -->
  <text x="200" y="70" font-family="Arial, sans-serif" font-size="12"
    text-anchor="middle" fill="#666">
    <tspan x="200" dy="0">Textual &amp; Iconographic Mapping for Exploration,
    </tspan>
    <tspan x="200" dy="15">Transcription, Retrieval, Visualization, and</tspan>
    <tspan x="200" dy="15">Linguistic Reconstructions</tspan>
  </text>

  <!-- Icon: A simple map/compass for exploration -->
  <circle cx="50" cy="120" r="20" fill="none" stroke="#333" stroke-width="2" />
  <polygon points="50,100 55,115 45,115" fill="#333" />
  <line x1="50" y1="100" x2="50" y2="140" stroke="#333" stroke-width="2" />
  <line x1="30" y1="120" x2="70" y2="120" stroke="#333" stroke-width="2" />

  <!-- Icon: Book for textual/transcription -->
  <rect x="100" y="110" width="20" height="25" fill="none" stroke="#333"
    stroke-width="2" />
  <line x1="100" y1="115" x2="120" y2="115" stroke="#333" stroke-width="1" />
  <line x1="100" y1="120" x2="120" y2="120" stroke="#333" stroke-width="1" />
  <line x1="100" y1="125" x2="120" y2="125" stroke="#333" stroke-width="1" />

  <!-- Icon: Search/magnifying glass for retrieval -->
  <circle cx="160" cy="125" r="15" fill="none" stroke="#333" stroke-width="2" />
  <line x1="170" y1="135" x2="180" y2="145" stroke="#333" stroke-width="2" />

  <!-- Icon: Chart/graph for visualization -->
  <polyline points="210,140 220,130 230,135 240,125 250,130" fill="none"
    stroke="#333" stroke-width="2" />
  <line x1="205" y1="140" x2="255" y2="140" stroke="#333" stroke-width="1" />
  <line x1="210" y1="135" x2="210" y2="145" stroke="#333" stroke-width="1" />

  <!-- Icon: Speech bubble for linguistic -->
  <ellipse cx="290" cy="125" rx="20" ry="15" fill="none" stroke="#333"
    stroke-width="2" />
  <polygon points="290,110 285,125 295,125" fill="#333" />
  <text x="290" y="130" font-family="Arial, sans-serif" font-size="8"
    text-anchor="middle" fill="#333">ABC</text>

  <!-- Icon: Clock for time/travel -->
  <circle cx="350" cy="125" r="20" fill="none" stroke="#333" stroke-width="2" />
  <line x1="350" y1="125" x2="350" y2="115" stroke="#333" stroke-width="2" />
  <line x1="350" y1="125" x2="358" y2="130" stroke="#333" stroke-width="2" />
</svg>